<svg xmlns="http://www.w3.org/2000/svg" viewBox="0 0 512 512">
  <defs>
    <linearGradient id="bg" x1="0%" y1="0%" x2="100%" y2="100%">
      <stop offset="0%" style="stop-color:#0ea5e9"/>
      <stop offset="100%" style="stop-color:#0284c7"/>
    </linearGradient>
  </defs>
  <rect width="512" height="512" rx="96" fill="url(#bg)"/>
  <g fill="white">
    <!-- Thumb up icon -->
    <path d="M256 80c-16 0-32 8-44 24l-80 110c-8 11-12 24-12 38v140c0 22 18 40 40 40h160c18 0 34-12 38-30l32-120c8-28-14-56-42-56h-72v-80c0-36-20-66-20-66z" opacity="0.95"/>
    <!-- Road/path lines -->
    <rect x="100" y="420" width="312" height="24" rx="12"/>
    <rect x="140" y="380" width="232" height="12" rx="6" opacity="0.7"/>
  </g>
  <!-- Location pin -->
  <circle cx="380" cy="140" r="40" fill="#fbbf24"/>
  <circle cx="380" cy="140" r="16" fill="#0ea5e9"/>
</svg>
