<svg xmlns="http://www.w3.org/2000/svg" viewBox="0 0 512 512">
  <defs>
    <linearGradient id="gradient" x1="0%" y1="0%" x2="100%" y2="100%">
      <stop offset="0%" style="stop-color:#0ea5e9"/>
      <stop offset="100%" style="stop-color:#0284c7"/>
    </linearGradient>
  </defs>
  <rect width="512" height="512" rx="96" fill="url(#gradient)"/>
  <g fill="white">
    <!-- Thumb up hitchhiker symbol -->
    <path d="M256 100c-14 0-28 7-38 20l-70 96c-7 10-10 21-10 33v120c0 19 16 35 35 35h140c16 0 30-10 33-26l28-105c7-24-12-49-37-49h-63v-70c0-31-18-54-18-54z"/>
    <!-- Road lines -->
    <rect x="110" y="400" width="292" height="20" rx="10"/>
    <rect x="145" y="365" width="222" height="10" rx="5" opacity="0.6"/>
  </g>
  <!-- Map pin accent -->
  <circle cx="370" cy="135" r="35" fill="#fbbf24"/>
  <circle cx="370" cy="135" r="14" fill="url(#gradient)"/>
</svg>
